<svg xmlns="http://www.w3.org/2000/svg" width="512" height="512" viewBox="0 0 512 512" role="img" aria-label="Brain minimal favicon">
  <defs>
    <linearGradient id="bg" x1="0" y1="0" x2="1" y2="1">
      <stop offset="0%" stop-color="#0b1220"/>
      <stop offset="100%" stop-color="#111b2f"/>
    </linearGradient>
    <linearGradient id="line" x1="0" y1="0" x2="1" y2="1">
      <stop offset="0%" stop-color="#c4b5fd"/>
      <stop offset="100%" stop-color="#67e8f9"/>
    </linearGradient>
  </defs>

  <rect x="24" y="24" width="464" height="464" rx="104" fill="url(#bg)"/>

  <path d="M256 122 C208 122 170 155 161 196 C134 208 118 236 118 268 C118 312 154 346 198 346 H314 C358 346 394 312 394 268 C394 236 378 208 351 196 C342 155 304 122 256 122Z"
        fill="none" stroke="url(#line)" stroke-width="22" stroke-linecap="round" stroke-linejoin="round"/>

  <path d="M256 146 V346" fill="none" stroke="url(#line)" stroke-width="16" stroke-linecap="round"/>
  <path d="M210 186 C190 194 183 215 191 231 C179 243 177 261 189 274" fill="none" stroke="url(#line)" stroke-width="12" stroke-linecap="round"/>
  <path d="M302 186 C322 194 329 215 321 231 C333 243 335 261 323 274" fill="none" stroke="url(#line)" stroke-width="12" stroke-linecap="round"/>
</svg>
