<svg xmlns="http://www.w3.org/2000/svg" width="512" height="512" viewBox="0 0 512 512" role="img" aria-label="Brain bold favicon">
  <defs>
    <linearGradient id="bg2" x1="0" y1="0" x2="1" y2="1">
      <stop offset="0%" stop-color="#0f172a"/>
      <stop offset="100%" stop-color="#1e293b"/>
    </linearGradient>
    <linearGradient id="brain2" x1="0" y1="0" x2="1" y2="1">
      <stop offset="0%" stop-color="#a78bfa"/>
      <stop offset="100%" stop-color="#22d3ee"/>
    </linearGradient>
  </defs>

  <rect x="20" y="20" width="472" height="472" rx="112" fill="url(#bg2)"/>

  <path d="M256 110 C198 110 154 148 145 198 C113 212 92 242 92 278 C92 328 133 369 183 369 H329 C379 369 420 328 420 278 C420 242 399 212 367 198 C358 148 314 110 256 110Z"
        fill="url(#brain2)" opacity="0.18"/>

  <path d="M256 124 C206 124 166 156 157 199 C129 211 112 238 112 270 C112 314 148 350 192 350 H320 C364 350 400 314 400 270 C400 238 383 211 355 199 C346 156 306 124 256 124Z"
        fill="none" stroke="url(#brain2)" stroke-width="30" stroke-linecap="round" stroke-linejoin="round"/>

  <path d="M256 148 V350" fill="none" stroke="url(#brain2)" stroke-width="20" stroke-linecap="round"/>

  <path d="M206 172 C172 184 160 214 171 238 C145 256 139 286 160 307 C172 319 190 327 208 327"
        fill="none" stroke="url(#brain2)" stroke-width="16" stroke-linecap="round"/>
  <path d="M306 172 C340 184 352 214 341 238 C367 256 373 286 352 307 C340 319 322 327 304 327"
        fill="none" stroke="url(#brain2)" stroke-width="16" stroke-linecap="round"/>
</svg>
